<?xml version="1.0" encoding="utf-8"?>
<!-- Generator: Adobe Illustrator 28.0.0, SVG Export Plug-In . SVG Version: 6.00 Build 0)  -->
<svg version="1.1" id="Слой_1" xmlns="http://www.w3.org/2000/svg" xmlns:xlink="http://www.w3.org/1999/xlink" x="0px" y="0px"
	 viewBox="0 0 595.3 841.9" style="enable-background:new 0 0 595.3 841.9;" xml:space="preserve">
<style type="text/css">
	.st0{fill:#B2B2B2;}
	.st1{fill:#FFFFFF;}
	.st2{fill:#619938;}
	.st3{fill:#EDEDED;}
	.st4{font-family:'ArialMT';}
	.st5{font-size:12px;}
</style>
<rect class="st0" width="600" height="800"/>
<g>
	<circle class="st1" cx="300" cy="380" r="170"/>
	<path d="M300,280c55.2,0,100,44.8,100,100s-44.8,100-100,100s-100-44.8-100-100S244.8,280,300,280 M300,140
		c-32.3,0-63.8,6.4-93.5,18.9c-28.6,12.1-54.2,29.4-76.2,51.4c-22,22-39.3,47.7-51.4,76.2C66.4,316.2,60,347.7,60,380
		s6.4,63.8,18.9,93.5c12.1,28.6,29.4,54.2,51.4,76.2c22,22,47.7,39.3,76.2,51.4c29.7,12.6,61.1,18.9,93.5,18.9s63.8-6.4,93.5-18.9
		c28.6-12.1,54.2-29.4,76.2-51.4c22-22,39.3-47.6,51.4-76.2c12.6-29.7,18.9-61.1,18.9-93.5s-6.4-63.8-18.9-93.5
		c-12.1-28.6-29.4-54.3-51.4-76.2c-22-22-47.6-39.3-76.2-51.4C363.8,146.4,332.3,140,300,140L300,140z"/>
</g>
<g>
	<circle class="st2" cx="300" cy="380" r="89"/>
</g>
<g id="Первый">
	<path class="st3" d="M300,257.5c67.6,0,122.5,54.9,122.5,122.5S367.6,502.5,300,502.5S177.5,447.6,177.5,380S232.4,257.5,300,257.5
		 M300,254.5c-33.5,0-65,13.1-88.7,36.8c-23.7,23.7-36.8,55.2-36.8,88.7s13.1,65,36.8,88.7c23.7,23.7,55.2,36.8,88.7,36.8
		s65-13,88.7-36.8c23.7-23.7,36.8-55.2,36.8-88.7s-13-65-36.8-88.7C365,267.5,333.5,254.5,300,254.5L300,254.5z"/>
</g>
<g id="Мегх">
	<path class="st3" d="M300,237.5c78.7,0,142.5,63.8,142.5,142.5S378.7,522.5,300,522.5S157.5,458.7,157.5,380S221.3,237.5,300,237.5
		 M300,235.5c-38.6,0-74.9,15-102.2,42.3c-27.3,27.3-42.3,63.6-42.3,102.2s15,74.9,42.3,102.2c27.3,27.3,63.6,42.3,102.2,42.3
		s74.9-15,102.2-42.3c27.3-27.3,42.3-63.6,42.3-102.2s-15-74.9-42.3-102.2C374.9,250.5,338.6,235.5,300,235.5L300,235.5z"/>
</g>
<g id="Свадеш">
	<path class="st3" d="M300,225c85.6,0,155,69.4,155,155s-69.4,155-155,155s-155-69.4-155-155S214.4,225,300,225 M300,217
		c-43.5,0-84.5,16.9-115.3,47.7S137,336.5,137,380s16.9,84.5,47.7,115.3S256.5,543,300,543s84.5-17,115.3-47.7S463,423.5,463,380
		s-17-84.5-47.7-115.3S343.5,217,300,217L300,217z"/>
</g>
<g id="Йибон">
	<path class="st3" d="M300,200c99.4,0,180,80.6,180,180s-80.6,180-180,180s-180-80.6-180-180S200.6,200,300,200 M300,197
		c-24.7,0-48.7,4.8-71.2,14.4c-21.8,9.2-41.4,22.4-58.2,39.2s-30,36.4-39.2,58.2c-9.5,22.6-14.4,46.5-14.4,71.2s4.8,48.7,14.4,71.2
		c9.2,21.8,22.4,41.4,39.2,58.2s36.4,30,58.2,39.2c22.6,9.5,46.5,14.4,71.2,14.4s48.7-4.8,71.2-14.4c21.8-9.2,41.4-22.4,58.2-39.2
		c16.8-16.8,30-36.4,39.2-58.2c9.5-22.6,14.4-46.5,14.4-71.2s-4.8-48.7-14.4-71.2c-9.2-21.8-22.4-41.4-39.2-58.2s-36.4-30-58.2-39.2
		C348.7,201.8,324.7,197,300,197L300,197z"/>
</g>
<g id="Палано">
	<path class="st3" d="M300,180c110.5,0,200,89.5,200,200s-89.5,200-200,200s-200-89.5-200-200S189.5,180,300,180 M300,179
		c-27.1,0-53.5,5.3-78.2,15.8c-23.9,10.1-45.4,24.6-63.9,43.1c-18.5,18.5-32.9,40-43.1,63.9C104.3,326.5,99,352.9,99,380
		s5.3,53.5,15.8,78.2c10.1,23.9,24.6,45.4,43.1,63.9s39.9,33,63.9,43.1c24.8,10.5,51.1,15.8,78.2,15.8s53.5-5.3,78.2-15.8
		c23.9-10.1,45.4-24.6,63.9-43.1s33-40,43.1-63.9c10.5-24.8,15.8-51.1,15.8-78.2s-5.3-53.5-15.8-78.2
		c-10.1-23.9-24.6-45.4-43.1-63.9s-40-32.9-63.9-43.1C353.5,184.3,327.1,179,300,179L300,179z"/>
</g>
<g id="Юдха">
	<path class="st3" d="M300,170c116,0,210,94,210,210s-94,210-210,210S90,496,90,380S184,170,300,170 M300,165
		c-29,0-57.2,5.7-83.7,16.9c-25.6,10.8-48.6,26.3-68.3,46.1s-35.2,42.7-46.1,68.3C90.7,322.8,85,351,85,380s5.7,57.2,16.9,83.7
		c10.8,25.6,26.3,48.6,46.1,68.3c19.7,19.7,42.7,35.2,68.3,46.1C242.8,589.3,271,595,300,595s57.2-5.7,83.7-16.9
		c25.6-10.8,48.6-26.3,68.3-46.1s35.2-42.7,46.1-68.3C509.3,437.2,515,409,515,380s-5.7-57.2-16.9-83.7
		c-10.8-25.6-26.3-48.6-46.1-68.3c-19.7-19.7-42.7-35.2-68.3-46.1C357.2,170.7,329,165,300,165L300,165z"/>
</g>
<g id="Чарм">
	<path class="st1" d="M300,140c132.5,0,240,107.4,240,240S432.5,620,300,620S60,512.5,60,380S167.4,140,300,140 M300,139
		c-32.5,0-64.1,6.4-93.8,18.9c-28.7,12.1-54.5,29.5-76.6,51.6s-39.5,47.9-51.7,76.6C65.4,315.9,59,347.5,59,380s6.4,64.1,18.9,93.8
		c12.1,28.7,29.5,54.5,51.6,76.6c22.1,22.1,47.9,39.5,76.6,51.7c29.7,12.6,61.3,18.9,93.8,18.9s64.1-6.4,93.8-18.9
		c28.7-12.1,54.5-29.5,76.6-51.7s39.5-47.9,51.6-76.6c12.6-29.7,18.9-61.3,18.9-93.8s-6.4-64.1-18.9-93.8
		c-12.1-28.7-29.5-54.5-51.6-76.6s-47.9-39.5-76.6-51.6C364.1,145.4,332.5,139,300,139L300,139z"/>
</g>
<text transform="matrix(1 0 0 1 404.3613 374.6807)" class="st1 st4 st5">А</text>
<text transform="matrix(1 0 0 1 430.3174 374.6807)" class="st1 st4 st5">B</text>
<text transform="matrix(1 0 0 1 445.4003 374.7524)" class="st1 st4 st5">C</text>
<text transform="matrix(1 0 0 1 469.1137 374.8726)" class="st1 st4 st5">D</text>
<text transform="matrix(1 0 0 1 489.4879 374.9443)" class="st1 st4 st5">E</text>
<text transform="matrix(1 0 0 1 525.416 374.9443)" class="st1 st4 st5">G</text>
<text transform="matrix(1 0 0 1 503.3218 374.9443)" class="st1 st4 st5">F</text>
</svg>
